<svg width="424" height="513" viewBox="0 0 424 513" fill="none" xmlns="http://www.w3.org/2000/svg">
<path d="M313 343C333.987 343 351 326.211 351 305.5C351 284.789 333.987 268 313 268C292.013 268 275 284.789 275 305.5C275 326.211 292.013 343 313 343Z" stroke="#05203D" stroke-width="30" stroke-linejoin="round"/>
<path d="M220.404 283.52C206.46 335.644 236.621 389.026 287.76 402.757C338.9 416.487 391.656 385.361 405.597 333.237C419.538 281.114 389.38 227.732 338.241 214" stroke="#CFCFAF" stroke-width="30" stroke-linejoin="round"/>
<path d="M289.659 213.602H104.399C68.6963 213.583 39.7395 184.08 39.7227 147.702C39.7059 111.324 68.6333 81.8462 104.336 81.8644C140.038 81.8827 168.996 111.385 169.012 147.764H108.692V147.764" stroke="#05203D" stroke-width="30"/>
<path d="M285.5 0C285.5 8.95817 285.5 121.732 285.5 177" stroke="#89C7AA" stroke-width="30" stroke-linejoin="round"/>
<path d="M13 498H50.9052C76.3627 498 97 478.302 97 454C97 429.698 76.3627 410 50.9052 410H-24.9052C-50.3627 410 -71 429.698 -71 454" stroke="#05203D" stroke-width="30" stroke-linejoin="round"/>
<path d="M-140 435C-140 388.612 -102.555 351 -56.3639 351H91" stroke="#05203D" stroke-width="30" stroke-linejoin="round"/>
<path d="M230.5 100C230.5 103.695 230.5 150.206 230.5 173" stroke="#F6AE9F" stroke-width="30" stroke-linejoin="round"/>
<path d="M133.471 336C133.49 346 133.51 356 133.529 366" stroke="#05203D" stroke-width="30" stroke-linejoin="round"/>
</svg>
