<svg width="457" height="621" viewBox="0 0 457 621" fill="none" xmlns="http://www.w3.org/2000/svg">
<path d="M287 381.189V396.189C295.284 396.189 302 389.473 302 381.189H287ZM257 381.189H242C242 389.473 248.716 396.189 257 396.189V381.189ZM446.738 284.74L459.9 291.933C461.808 288.442 462.251 284.336 461.132 280.519C460.012 276.701 457.422 273.485 453.931 271.577L446.738 284.74ZM432.351 311.065L425.158 324.228C432.428 328.201 441.541 325.528 445.514 318.259L432.351 311.065ZM482.974 314.708L494.625 305.26C489.407 298.826 479.961 297.839 473.526 303.057L482.974 314.708ZM507 447.708V462.708C515.284 462.708 522 455.992 522 447.708H507ZM477 447.708H462C462 455.992 468.716 462.708 477 462.708V447.708ZM459.672 333.603L450.225 321.952C447.135 324.458 445.167 328.089 444.753 332.045C444.34 336.002 445.516 339.961 448.021 343.051L459.672 333.603ZM302 381.189C302 346.958 334.462 313.483 382 313.483V283.483C321.157 283.483 272 327.304 272 381.189H302ZM257 396.189H287V366.189H257V396.189ZM382 253.483C308.185 253.483 242 307.354 242 381.189H272C272 327.284 321.179 283.483 382 283.483V253.483ZM453.931 271.577C432.762 260.009 408.099 253.483 382 253.483V283.483C403.092 283.483 422.806 288.755 439.544 297.903L453.931 271.577ZM445.514 318.259L459.9 291.933L433.575 277.547L419.189 303.872L445.514 318.259ZM382 313.483C398.085 313.483 412.849 317.502 425.158 324.228L439.544 297.903C422.806 288.755 403.092 283.483 382 283.483V313.483ZM522 381.189C522 352.472 511.612 326.208 494.625 305.26L471.323 324.156C484.336 340.203 492 359.903 492 381.189H522ZM522 447.708V381.189H492V447.708H522ZM477 462.708H507V432.708H477V462.708ZM462 381.189V447.708H492V381.189H462ZM448.021 343.051C457.056 354.192 462 367.326 462 381.189H492C492 359.904 484.337 340.204 471.323 324.156L448.021 343.051ZM473.526 303.057L450.225 321.952L469.12 345.254L492.422 326.359L473.526 303.057Z" fill="#F6AE9F"/>
<path d="M198.5 525.91H195.365C173.074 525.91 155 543.637 155 565.5C155 587.363 173.074 605.09 195.365 605.09H288.635C310.926 605.09 329 587.363 329 565.5C329 543.637 310.926 525.91 288.635 525.91H285.5" stroke="#05203D" stroke-width="30" stroke-linejoin="round"/>
<path d="M406 609V460.338C406 431.227 381.825 407.629 352 407.629C322.175 407.629 298 431.227 298 460.338V483.346" stroke="#89C7AA" stroke-width="30" stroke-linejoin="round"/>
<path d="M352 106.31C352 160.97 397.893 205.281 454.5 205.281C511.107 205.281 557 160.97 557 106.31V0" stroke="#89C7AA" stroke-width="30" stroke-linejoin="round"/>
<path d="M120 381.236H163.146C206.698 381.236 242 415.893 242 458.651V537.64" stroke="#CFCFAF" stroke-width="30" stroke-linejoin="round"/>
<path d="M162 484.854C176.912 484.854 189 473.256 189 458.949C189 444.643 176.912 433.045 162 433.045C147.088 433.045 135 444.643 135 458.949C135 473.256 147.088 484.854 162 484.854Z" stroke="#05203D" stroke-width="30" stroke-linejoin="round"/>
<path d="M15.4714 546.438C15.4905 556.214 15.5095 565.989 15.5286 575.764" stroke="#89C7AA" stroke-width="30" stroke-linejoin="round"/>
<path d="M15.4714 488.764C15.4905 498.539 15.5095 508.315 15.5286 518.09" stroke="#CFCFAF" stroke-width="30" stroke-linejoin="round"/>
</svg>
