<svg width="1440" height="679" viewBox="0 0 1440 679" fill="none" xmlns="http://www.w3.org/2000/svg">
<g clip-path="url(#clip0_19_670)">
<rect width="1600" height="679" transform="translate(-110)" fill="white"/>
<rect x="-110" y="-427" width="1600" height="1200" fill="#E6E9F3"/>
<mask id="mask0_19_670" style="mask-type:alpha" maskUnits="userSpaceOnUse" x="-110" y="-427" width="1600" height="1200">
<rect x="-110" y="-427" width="1600" height="1200" fill="#E6E9F3"/>
</mask>
<g mask="url(#mask0_19_670)">
<path d="M278.25 573.558C454.848 735.286 706.421 699.792 886.175 510.537C1065.93 321.283 1029.88 25.1751 821.423 -97.2057C612.962 -219.586 383.096 -215.236 213.498 -34.1853C43.9007 146.865 101.652 411.83 278.25 573.558Z" fill="#EFF3F0"/>
<path d="M1640.34 310.053C1758.89 406.056 1758.98 563.604 1681.2 698.497C1603.43 833.39 1471.42 957.556 1379.33 1071.28C1287.24 1185 1117.02 1214.22 990.877 1112.07C864.73 1009.92 845.071 827.316 950.011 723.625C1054.95 619.933 1139.62 463.578 1251.88 350.842C1364.15 238.106 1521.78 214.051 1640.34 310.053Z" fill="#EFF3F0"/>
<path d="M52.9451 -32.3028C147.478 44.2481 275.844 26.9278 349.006 -63.4201C422.169 -153.768 410.363 -303.094 317.889 -359.481C225.415 -415.868 89.2183 -437.331 21.8278 -328.364C-45.5627 -219.397 -41.5874 -108.854 52.9451 -32.3028Z" fill="#E0436B"/>
<path d="M343.02 658.216C373.003 682.496 413.726 676.992 436.941 648.322C460.157 619.653 456.424 572.278 427.092 554.396C397.761 536.513 354.557 529.714 333.17 564.29C311.784 598.866 313.037 633.937 343.02 658.216Z" fill="#E0436B"/>
<path d="M477.077 568.935C465.708 573.19 461.521 585.369 465.933 597.843C470.344 610.318 484.547 615.504 494.872 608.905C505.197 602.306 510.29 591.824 506.016 579.997C501.742 568.17 488.445 564.681 477.077 568.935Z" fill="#E0436B"/>
<path d="M816.312 832.893C848.855 859.246 908.217 826.282 944.723 790.548C981.23 754.815 976.094 691.045 930.865 661.097C885.636 631.149 833.296 635.02 801.361 674.456C769.427 713.892 783.769 806.54 816.312 832.893Z" fill="#7252A4"/>
<path d="M237.763 399.255C309.783 465.212 412.381 450.736 485.689 373.553C558.998 296.369 544.299 175.609 459.283 125.7C374.268 75.7904 280.523 77.5653 211.357 151.402C142.19 225.24 165.742 333.299 237.763 399.255Z" fill="#F0C933"/>
<path d="M1310.89 355.957C1338.16 380.924 1377 375.445 1404.75 346.228C1432.5 317.012 1426.93 271.299 1394.75 252.406C1362.57 233.513 1327.08 234.185 1300.9 262.135C1274.72 290.085 1283.63 330.99 1310.89 355.957Z" fill="#F0C933"/>
<path d="M465.175 446.06C474.127 454.258 486.88 452.459 495.992 442.866C505.104 433.272 503.276 418.262 492.709 412.058C482.142 405.855 470.49 406.075 461.893 415.253C453.296 424.431 456.223 437.862 465.175 446.06Z" fill="#F0C933"/>
<path d="M1380.17 415.06C1389.13 423.258 1401.88 421.459 1410.99 411.866C1420.1 402.272 1418.28 387.262 1407.71 381.058C1397.14 374.855 1385.49 375.075 1376.89 384.253C1368.3 393.431 1371.22 406.862 1380.17 415.06Z" fill="#F0C933"/>
<path d="M499.088 391.53C503.564 395.629 509.94 394.729 514.496 389.933C519.052 385.136 518.139 377.631 512.855 374.529C507.571 371.427 501.745 371.537 497.447 376.126C493.148 380.715 494.612 387.431 499.088 391.53Z" fill="#F0C933"/>
<path d="M764.895 132.957C792.158 157.924 830.995 152.445 858.745 123.228C886.495 94.0115 880.931 48.2991 848.749 29.4062C816.567 10.5133 781.081 11.185 754.899 39.1352C728.717 67.0853 737.632 107.99 764.895 132.957Z" fill="#453264"/>
<path d="M17.1751 69.0602C26.1271 77.2584 38.8796 75.4592 47.9916 65.8656C57.1035 56.2721 55.2764 41.262 44.7093 35.0584C34.1421 28.8548 22.4899 29.0753 13.8928 38.253C5.29566 47.4306 8.22313 60.862 17.1751 69.0602Z" fill="#453264"/>
<path d="M1273.17 572.06C1282.13 580.258 1294.88 578.459 1303.99 568.866C1313.1 559.272 1311.28 544.262 1300.71 538.058C1290.14 531.855 1278.49 532.075 1269.89 541.253C1261.3 550.431 1264.22 563.862 1273.17 572.06Z" fill="#453264"/>
<path d="M749.438 165.023C743.281 175.484 747.692 187.584 758.97 194.502C770.249 201.42 784.551 196.512 788.422 184.886C792.293 173.26 789.655 161.908 778.89 155.407C768.125 148.906 755.596 154.562 749.438 165.023Z" fill="#453264"/>
<path d="M1431.89 -44.0428C1459.16 -19.0755 1498 -24.555 1525.75 -53.7717C1553.5 -82.9885 1547.93 -128.701 1515.75 -147.594C1483.57 -166.487 1448.08 -165.815 1421.9 -137.865C1395.72 -109.915 1404.63 -69.01 1431.89 -44.0428Z" fill="#0F90D1"/>
<path d="M-173.132 926.311C-66.4684 1012.69 103.79 992.706 212.629 886.122C321.467 779.537 306.359 589.536 171.736 500.435C37.1124 411.334 -118.792 423.022 -214.025 540.625C-309.257 658.227 -279.795 839.937 -173.132 926.311Z" fill="#0F90D1"/>
<path d="M1380.94 -56.5102C1467.43 13.524 1467.48 128.47 1410.73 226.893C1353.98 325.316 1257.66 415.915 1190.47 498.894C1123.27 581.872 999.088 603.201 907.063 528.681C815.038 454.16 800.708 320.938 877.276 245.278C953.843 169.618 1015.63 55.5362 1097.54 -26.7233C1179.45 -108.983 1294.46 -126.544 1380.94 -56.5102Z" fill="#0F90D1"/>
<path d="M-330.854 590.32C-229.94 682.736 -86.1848 662.454 16.5319 554.309C119.249 446.163 98.6516 276.959 -20.469 207.027C-139.59 137.095 -270.942 139.581 -367.855 243.039C-464.768 346.496 -431.767 497.904 -330.854 590.32Z" fill="#C4C8D4"/>
<path d="M1400.15 975.32C1501.06 1067.74 1644.82 1047.45 1747.53 939.309C1850.25 831.163 1829.65 661.959 1710.53 592.027C1591.41 522.095 1460.06 524.581 1363.15 628.039C1266.23 731.496 1299.23 882.904 1400.15 975.32Z" fill="#C4C8D4"/>
<path d="M964.926 -679.317C1051.41 -609.283 1064.75 -482.399 994.713 -395.914C924.679 -309.429 832.221 -215.91 774.451 -123.913C716.68 -31.9153 569.024 -13.6409 491.048 -94.126C413.071 -174.611 383.161 -281.084 461.261 -377.529C539.361 -473.974 604.78 -554.761 681.523 -649.53C758.266 -744.299 878.441 -749.351 964.926 -679.317Z" fill="#6759AE"/>
</g>
</g>
<defs>
<clipPath id="clip0_19_670">
<rect width="1600" height="679" fill="white" transform="translate(-110)"/>
</clipPath>
</defs>
</svg>
